<svg width="12" height="14" viewBox="0 0 12 14" fill="none" xmlns="http://www.w3.org/2000/svg">
<rect width="12" height="14" fill="#E5E5E5"/>
<g clip-path="url(#clip0_0:1)">
<rect width="1440" height="1462" transform="translate(-1235 -1223)" fill="#F6F8FB"/>
<g filter="url(#filter0_d_0:1)">
<rect x="-1070" y="-201" width="1110" height="410" rx="8" fill="white"/>
</g>
<g clip-path="url(#clip1_0:1)">
<rect x="-1070" y="-21" width="1110" height="56" fill="white"/>
</g>
<g clip-path="url(#clip2_0:1)">
<path d="M2.00952 13.3248C2.02552 13.7024 2.33592 14 2.71352 14H9.29112C9.66872 14 9.98072 13.7024 9.99512 13.3248L10.4655 3.408H1.53912L2.00952 13.3248ZM7.48952 5.872C7.48952 5.7136 7.61752 5.5856 7.77592 5.5856H8.23352C8.39192 5.5856 8.51992 5.7152 8.51992 5.872V11.5376C8.51992 11.696 8.39032 11.824 8.23352 11.824H7.77592C7.61752 11.824 7.48952 11.696 7.48952 11.5376V5.872ZM5.48792 5.872C5.48792 5.7136 5.61592 5.5856 5.77432 5.5856H6.23192C6.39032 5.5856 6.51832 5.7152 6.51832 5.872V11.5376C6.51832 11.696 6.39032 11.824 6.23192 11.824H5.77432C5.61592 11.824 5.48792 11.696 5.48792 11.5376V5.872ZM3.48472 5.872C3.48472 5.7136 3.61272 5.5856 3.76952 5.5856H4.22712C4.38552 5.5856 4.51352 5.7152 4.51352 5.872V11.5376C4.51352 11.696 4.38392 11.824 4.22712 11.824H3.76952C3.61112 11.824 3.48472 11.696 3.48472 11.5376V5.872ZM10.7775 0.7216H7.74392V0.1472C7.74392 0.0656 7.67832 0 7.59672 0H4.40952C4.32792 0 4.26232 0.0656 4.26232 0.1472V0.7216H1.22712C0.983922 0.7216 0.785522 0.9184 0.785522 1.1632V2.552H11.2191V1.1632C11.2191 0.92 11.0223 0.7216 10.7775 0.7216Z" fill="#FF6760"/>
</g>
</g>
<defs>
<filter id="filter0_d_0:1" x="-1096" y="-215" width="1162" height="462" filterUnits="userSpaceOnUse" color-interpolation-filters="sRGB">
<feFlood flood-opacity="0" result="BackgroundImageFix"/>
<feColorMatrix in="SourceAlpha" type="matrix" values="0 0 0 0 0 0 0 0 0 0 0 0 0 0 0 0 0 0 127 0" result="hardAlpha"/>
<feOffset dy="12"/>
<feGaussianBlur stdDeviation="13"/>
<feColorMatrix type="matrix" values="0 0 0 0 0.0627451 0 0 0 0 0.117647 0 0 0 0 0.45098 0 0 0 0.06 0"/>
<feBlend mode="normal" in2="BackgroundImageFix" result="effect1_dropShadow_0:1"/>
<feBlend mode="normal" in="SourceGraphic" in2="effect1_dropShadow_0:1" result="shape"/>
</filter>
<clipPath id="clip0_0:1">
<rect width="1440" height="1462" fill="white" transform="translate(-1235 -1223)"/>
</clipPath>
<clipPath id="clip1_0:1">
<rect width="1110" height="335" fill="white" transform="translate(-1070 -133)"/>
</clipPath>
<clipPath id="clip2_0:1">
<rect width="20" height="336" fill="white" transform="translate(-4 -133)"/>
</clipPath>
</defs>
</svg>
