<svg width="36" height="34" viewBox="0 0 36 34" fill="none" xmlns="http://www.w3.org/2000/svg">
<rect width="36" height="34" fill="#E5E5E5"/>
<g clip-path="url(#clip0_0:1)">
<rect width="1440" height="1462" transform="translate(-1046 -203)" fill="#F6F8FB"/>
<g filter="url(#filter0_d_0:1)">
<rect x="-26" y="-27" width="255" height="88" rx="8" fill="white"/>
</g>
<path d="M1.75178 12.0281H34.2478C34.2478 12.0281 35.1558 11.2841 34.2478 10.3361L18.0038 0.776123L1.75178 10.3321C1.75178 10.3321 0.627784 11.3441 1.75178 12.0281ZM35.3078 31.9121L33.3478 30.2081C33.2398 30.1161 32.9958 30.0401 32.7958 30.0401L3.60378 30.0841C3.40778 30.0841 3.14778 30.1561 3.02778 30.2441L0.719784 31.9201C0.599784 32.0081 0.503784 32.1681 0.503784 32.2761V33.0241C0.503784 33.1321 0.663784 33.2241 0.863784 33.2241H35.1478C35.3438 33.2241 35.5078 33.1361 35.5078 33.0241V32.2801C35.4998 32.1681 35.4118 32.0041 35.3078 31.9121ZM30.1598 13.3521H33.1518V28.3481H30.1598V13.3521ZM25.2638 13.3521H28.2558V28.3481H25.2638V13.3521ZM8.20778 13.3521H11.1998V28.3481H8.20778V13.3521ZM3.31178 13.3521H6.30378V28.3481H3.31178V13.3521ZM18.0638 28.3281C18.2918 28.3281 18.5198 28.2961 18.7358 28.2321V26.4161C19.6638 26.2081 20.3718 25.8081 20.8598 25.2161C21.3438 24.6281 21.5878 23.9041 21.5878 23.0481C21.5878 22.5361 21.5238 22.1121 21.3998 21.7721C21.2758 21.4321 21.0998 21.1441 20.8758 20.9121C20.6518 20.6761 20.3758 20.4761 20.0518 20.3081C19.7278 20.1401 19.3678 19.9721 18.9718 19.8081L18.0318 19.4161C17.8758 19.3521 17.7198 19.2841 17.5638 19.2121C17.4078 19.1401 17.2678 19.0521 17.1398 18.9521C17.0158 18.8521 16.9158 18.7321 16.8438 18.5841C16.7718 18.4361 16.7358 18.2601 16.7358 18.0521C16.7358 17.8121 16.7838 17.6161 16.8758 17.4641C16.9678 17.3121 17.0878 17.1961 17.2358 17.1121C17.3838 17.0281 17.5478 16.9721 17.7278 16.9481C17.9118 16.9241 18.0918 16.9081 18.2678 16.9081C18.5598 16.9081 18.8198 16.9201 19.0518 16.9481C19.2798 16.9761 19.4878 17.0081 19.6718 17.0481C19.8558 17.0881 20.0278 17.1441 20.1878 17.2041C20.3478 17.2681 20.5078 17.3281 20.6638 17.3921C20.9358 16.8081 21.1038 16.2121 21.1638 15.6081C20.7358 15.4601 20.3278 15.3441 19.9438 15.2561C19.5558 15.1681 19.1558 15.1081 18.7358 15.0761V13.4641C18.4958 13.4001 18.2678 13.3721 18.0478 13.3721C17.8198 13.3721 17.5918 13.4041 17.3758 13.4641V15.1241C16.4358 15.2401 15.6998 15.5681 15.1678 16.1121C14.6358 16.6561 14.3678 17.3961 14.3678 18.3361C14.3678 18.7761 14.4238 19.1441 14.5318 19.4481C14.6398 19.7521 14.7998 20.0161 14.9998 20.2401C15.2038 20.4641 15.4478 20.6561 15.7278 20.8201C16.0078 20.9841 16.3238 21.1361 16.6678 21.2841L17.4998 21.6441C17.6758 21.7281 17.8598 21.8081 18.0478 21.8801C18.2358 21.9521 18.4038 22.0401 18.5558 22.1481C18.7078 22.2521 18.8318 22.3841 18.9318 22.5481C19.0318 22.7081 19.0798 22.9161 19.0798 23.1681C19.0798 23.6681 18.8998 24.0321 18.5398 24.2561C18.1798 24.4801 17.6718 24.5921 17.0118 24.5921C16.5718 24.5921 16.1598 24.5601 15.7758 24.4921C15.3878 24.4241 14.9758 24.3001 14.5398 24.1241C14.4238 24.4601 14.3238 24.7801 14.2438 25.0881C14.1598 25.3961 14.1038 25.7001 14.0718 26.0041C14.3318 26.1081 14.5838 26.1961 14.8238 26.2721C15.0638 26.3441 15.3078 26.4041 15.5518 26.4521C15.7958 26.5001 16.0558 26.5321 16.3278 26.5521C16.5998 26.5721 16.9078 26.5841 17.2518 26.5841H17.3758V28.2441C17.6038 28.2961 17.8358 28.3281 18.0638 28.3281Z" fill="#558EFF"/>
</g>
<defs>
<filter id="filter0_d_0:1" x="-52" y="-41" width="307" height="140" filterUnits="userSpaceOnUse" color-interpolation-filters="sRGB">
<feFlood flood-opacity="0" result="BackgroundImageFix"/>
<feColorMatrix in="SourceAlpha" type="matrix" values="0 0 0 0 0 0 0 0 0 0 0 0 0 0 0 0 0 0 127 0" result="hardAlpha"/>
<feOffset dy="12"/>
<feGaussianBlur stdDeviation="13"/>
<feColorMatrix type="matrix" values="0 0 0 0 0.0627451 0 0 0 0 0.117647 0 0 0 0 0.45098 0 0 0 0.06 0"/>
<feBlend mode="normal" in2="BackgroundImageFix" result="effect1_dropShadow_0:1"/>
<feBlend mode="normal" in="SourceGraphic" in2="effect1_dropShadow_0:1" result="shape"/>
</filter>
<clipPath id="clip0_0:1">
<rect width="1440" height="1462" fill="white" transform="translate(-1046 -203)"/>
</clipPath>
</defs>
</svg>
